****** The.Greatest.2009.DVDRiP.XviD.OPTIONAL-MULTISUB-Zen_Bud *******

Format                           : AVI
File size                        : 707 MiB
Duration                         : 1h 36mn
Overall bit rate                 : 1 025 Kbps

Video

Format                           : MPEG-4 Visual
Codec ID/Hint                    : XviD
Duration                         : 1h 36mn
Bit rate                         : 884 Kbps
Width                            : 720 pixels
Height                           : 428 pixels
Display aspect ratio             : 2.35:1
Stream size                      : 609 MiB (86%)
Writing library                  : XviD 1.1.2 (UTC 2006-11-01)

Audio

Format                           : MPEG Audio
Codec ID/Hint                    : MP3
Duration                         : 1h 36mn
Bit rate                         : 128 Kbps
Channel(s)                       : 2 channels
Sampling rate                    : 48.0 KHz
Stream size                      : 88.2 MiB (12%)
Writing library                  : LAME3.98
Language                         : English

Text #1
Language                         : Danish

Text #2
Language                         : Swedish

Text #3
Language                         : Norwegian


A drama that is centered around a troubled teenage girl and a family that is trying to get over the loss of their son. 